<svg width="209" height="253" viewBox="0 0 209 253" fill="none" xmlns="http://www.w3.org/2000/svg">
<path d="M137.787 92.8482C138.608 92.8482 139.338 92.3239 139.57 91.5532C139.817 90.7345 140.041 89.9046 140.243 89.0643C140.518 87.9174 139.633 86.8175 138.43 86.8175H70.5704C69.3668 86.8175 68.4816 87.9174 68.7569 89.0642C68.9586 89.9046 69.1833 90.7346 69.43 91.5533C69.6624 92.324 70.3923 92.8482 71.2133 92.8482H137.787Z" fill="#7EDF5E"/>
<path d="M139.523 161.427C139.288 160.66 138.56 160.138 137.741 160.138H71.2587C70.44 160.138 69.7115 160.66 69.4772 161.427C69.2273 162.246 68.9996 163.076 68.7948 163.917C68.5151 165.065 69.4008 166.169 70.6069 166.169H138.393C139.599 166.169 140.485 165.065 140.205 163.917C140 163.076 139.773 162.246 139.523 161.427Z" fill="#7EDF5E"/>
<path d="M205.851 53.4011C203.678 41.7019 200.628 31.4842 197.496 22.9475C196.434 20.0544 193.655 18.1369 190.514 18.0876C186.935 18.0313 182.015 17.1522 177.677 13.5515C174.636 11.0273 172.934 8.03958 171.978 5.5644C170.885 2.73487 168.096 0.876067 165.005 0.833443C144.402 0.549632 125.438 0.288439 104.5 0C83.5617 0.288439 64.5978 0.549632 43.9945 0.833443C40.904 0.876067 38.115 2.73487 37.0218 5.5644C36.0656 8.03965 34.3638 11.0273 31.3229 13.5515C26.9851 17.1522 22.065 18.0313 18.4856 18.0876C15.3451 18.1369 12.566 20.0543 11.5044 22.9474C8.37169 31.4842 5.32253 41.7018 3.14909 53.4011C1.63324 61.5609 -0.150779 74.3063 0.0101491 89.999C0.401944 128.193 12.4285 156.251 16.7269 165.535C17.0363 166.203 20.1741 172.946 24.0576 179.669C43.8062 213.855 77.3407 237.989 100.548 251.908C102.975 253.364 106.025 253.364 108.452 251.908C131.659 237.989 165.194 213.855 184.942 179.669C188.826 172.946 191.964 166.203 192.273 165.535C196.572 156.251 208.598 128.193 208.99 89.999C209.151 74.3063 207.367 61.5609 205.851 53.4011ZM155.279 182.796C155.279 186.036 152.595 188.662 149.286 188.662H147.506C144.196 188.662 141.513 186.036 141.513 182.796V180.118C141.513 179.111 140.679 178.294 139.65 178.294H69.3506C68.3215 178.294 67.4874 179.111 67.4874 180.118V182.796C67.4874 186.036 64.8043 188.662 61.4945 188.662H59.7146C56.4049 188.662 53.7218 186.036 53.7218 182.796V174.874C53.7218 160.319 58.9056 146.598 68.3183 136.239C70.2886 134.071 72.4013 132.101 74.6418 130.333C75.4982 129.657 76.374 129.012 77.2678 128.396C78.2004 127.754 79.1514 127.143 80.123 126.567C81.5289 125.734 82.9742 124.97 84.458 124.28C90.8004 121.327 97.5437 119.831 104.5 119.831C108.297 119.831 111.962 119.184 115.412 117.986C116.969 117.446 118.481 116.792 119.943 116.035C123.805 114.035 127.309 111.31 130.317 108.017C131.392 106.84 130.542 104.974 128.93 104.974H80.069C78.4568 104.974 77.6075 106.841 78.6821 108.017C80.8056 110.342 83.1761 112.383 85.7448 114.086C86.9813 114.906 86.7777 116.756 85.3863 117.287C84.178 117.748 82.9812 118.254 81.7971 118.805C79.7219 119.771 77.714 120.862 75.7777 122.073C75.0897 122.503 74.1939 122.453 73.5723 121.935C71.7263 120.396 69.972 118.716 68.3181 116.896C58.9055 106.537 53.7218 92.8164 53.7218 78.2608V70.2039C53.7218 66.9645 56.4049 64.3385 59.7146 64.3385H63.3577C65.6383 64.3385 67.4874 66.148 67.4872 68.3804V72.8687C67.4872 73.8759 68.3214 74.6923 69.3504 74.6923H139.649C140.678 74.6923 141.512 73.8759 141.512 72.8687V70.204C141.512 66.9646 144.195 64.3386 147.505 64.3386H149.285C152.595 64.3386 155.278 66.9646 155.278 70.204V78.2607C155.278 92.8161 150.094 106.537 140.682 116.896C138.712 119.064 136.599 121.034 134.358 122.802C133.502 123.478 132.626 124.123 131.732 124.738C130.8 125.38 129.849 125.992 128.877 126.567C127.471 127.4 126.026 128.164 124.542 128.855C118.2 131.807 111.456 133.304 104.5 133.304C100.703 133.304 97.0384 133.95 93.5876 135.148C92.0309 135.689 90.5186 136.343 89.0566 137.1C85.2552 139.068 81.8 141.74 78.8231 144.965C77.7403 146.138 78.5903 148.012 80.2056 148.012H128.795C130.41 148.012 131.26 146.138 130.178 144.965C128.091 142.704 125.769 140.715 123.257 139.05C122.02 138.23 122.222 136.379 123.614 135.848C124.822 135.387 126.019 134.881 127.203 134.33C129.278 133.364 131.286 132.273 133.223 131.062C133.911 130.632 134.806 130.682 135.428 131.2C137.274 132.738 139.028 134.419 140.682 136.239C150.095 146.598 155.279 160.318 155.279 174.874V182.796ZM183.493 46.5389C173.655 48.4225 169.881 54.3469 167.95 63.944C167.538 65.9942 164.532 65.9942 164.12 63.944C162.189 54.3469 158.415 48.4226 148.577 46.5389C146.475 46.1365 146.475 43.2043 148.577 42.8019C158.415 40.9183 162.189 34.994 164.12 25.3968C164.532 23.3466 167.538 23.3466 167.95 25.3968C169.881 34.994 173.655 40.9183 183.493 42.8019C185.595 43.2043 185.595 46.1366 183.493 46.5389Z" fill="#7EDF5E"/>
<path d="M137.787 92.8482C138.608 92.8482 139.338 92.3239 139.57 91.5532C139.817 90.7345 140.041 89.9046 140.243 89.0643C140.518 87.9174 139.633 86.8175 138.43 86.8175H70.5704C69.3668 86.8175 68.4816 87.9174 68.7569 89.0642C68.9586 89.9046 69.1833 90.7346 69.43 91.5533C69.6624 92.324 70.3923 92.8482 71.2133 92.8482H137.787Z" fill="#7EDF5E"/>
<path d="M139.523 161.427C139.288 160.66 138.56 160.138 137.741 160.138H71.2587C70.44 160.138 69.7115 160.66 69.4772 161.427C69.2273 162.246 68.9996 163.076 68.7948 163.917C68.5151 165.065 69.4008 166.169 70.6069 166.169H138.393C139.599 166.169 140.485 165.065 140.205 163.917C140 163.076 139.773 162.246 139.523 161.427Z" fill="#7EDF5E"/>
<path d="M205.851 53.4011C203.678 41.7019 200.628 31.4842 197.496 22.9475C196.434 20.0544 193.655 18.1369 190.514 18.0876C186.935 18.0313 182.015 17.1522 177.677 13.5515C174.636 11.0273 172.934 8.03958 171.978 5.5644C170.885 2.73487 168.096 0.876067 165.005 0.833443C144.402 0.549632 125.438 0.288439 104.5 0C83.5617 0.288439 64.5978 0.549632 43.9945 0.833443C40.904 0.876067 38.115 2.73487 37.0218 5.5644C36.0656 8.03965 34.3638 11.0273 31.3229 13.5515C26.9851 17.1522 22.065 18.0313 18.4856 18.0876C15.3451 18.1369 12.566 20.0543 11.5044 22.9474C8.37169 31.4842 5.32253 41.7018 3.14909 53.4011C1.63324 61.5609 -0.150779 74.3063 0.0101491 89.999C0.401944 128.193 12.4285 156.251 16.7269 165.535C17.0363 166.203 20.1741 172.946 24.0576 179.669C43.8062 213.855 77.3407 237.989 100.548 251.908C102.975 253.364 106.025 253.364 108.452 251.908C131.659 237.989 165.194 213.855 184.942 179.669C188.826 172.946 191.964 166.203 192.273 165.535C196.572 156.251 208.598 128.193 208.99 89.999C209.151 74.3063 207.367 61.5609 205.851 53.4011ZM155.279 182.796C155.279 186.036 152.595 188.662 149.286 188.662H147.506C144.196 188.662 141.513 186.036 141.513 182.796V180.118C141.513 179.111 140.679 178.294 139.65 178.294H69.3506C68.3215 178.294 67.4874 179.111 67.4874 180.118V182.796C67.4874 186.036 64.8043 188.662 61.4945 188.662H59.7146C56.4049 188.662 53.7218 186.036 53.7218 182.796V174.874C53.7218 160.319 58.9056 146.598 68.3183 136.239C70.2886 134.071 72.4013 132.101 74.6418 130.333C75.4982 129.657 76.374 129.012 77.2678 128.396C78.2004 127.754 79.1514 127.143 80.123 126.567C81.5289 125.734 82.9742 124.97 84.458 124.28C90.8004 121.327 97.5437 119.831 104.5 119.831C108.297 119.831 111.962 119.184 115.412 117.986C116.969 117.446 118.481 116.792 119.943 116.035C123.805 114.035 127.309 111.31 130.317 108.017C131.392 106.84 130.542 104.974 128.93 104.974H80.069C78.4568 104.974 77.6075 106.841 78.6821 108.017C80.8056 110.342 83.1761 112.383 85.7448 114.086C86.9813 114.906 86.7777 116.756 85.3863 117.287C84.178 117.748 82.9812 118.254 81.7971 118.805C79.7219 119.771 77.714 120.862 75.7777 122.073C75.0897 122.503 74.1939 122.453 73.5723 121.935C71.7263 120.396 69.972 118.716 68.3181 116.896C58.9055 106.537 53.7218 92.8164 53.7218 78.2608V70.2039C53.7218 66.9645 56.4049 64.3385 59.7146 64.3385H63.3577C65.6383 64.3385 67.4874 66.148 67.4872 68.3804V72.8687C67.4872 73.8759 68.3214 74.6923 69.3504 74.6923H139.649C140.678 74.6923 141.512 73.8759 141.512 72.8687V70.204C141.512 66.9646 144.195 64.3386 147.505 64.3386H149.285C152.595 64.3386 155.278 66.9646 155.278 70.204V78.2607C155.278 92.8161 150.094 106.537 140.682 116.896C138.712 119.064 136.599 121.034 134.358 122.802C133.502 123.478 132.626 124.123 131.732 124.738C130.8 125.38 129.849 125.992 128.877 126.567C127.471 127.4 126.026 128.164 124.542 128.855C118.2 131.807 111.456 133.304 104.5 133.304C100.703 133.304 97.0384 133.95 93.5876 135.148C92.0309 135.689 90.5186 136.343 89.0566 137.1C85.2552 139.068 81.8 141.74 78.8231 144.965C77.7403 146.138 78.5903 148.012 80.2056 148.012H128.795C130.41 148.012 131.26 146.138 130.178 144.965C128.091 142.704 125.769 140.715 123.257 139.05C122.02 138.23 122.222 136.379 123.614 135.848C124.822 135.387 126.019 134.881 127.203 134.33C129.278 133.364 131.286 132.273 133.223 131.062C133.911 130.632 134.806 130.682 135.428 131.2C137.274 132.738 139.028 134.419 140.682 136.239C150.095 146.598 155.279 160.318 155.279 174.874V182.796ZM183.493 46.5389C173.655 48.4225 169.881 54.3469 167.95 63.944C167.538 65.9942 164.532 65.9942 164.12 63.944C162.189 54.3469 158.415 48.4226 148.577 46.5389C146.475 46.1365 146.475 43.2043 148.577 42.8019C158.415 40.9183 162.189 34.994 164.12 25.3968C164.532 23.3466 167.538 23.3466 167.95 25.3968C169.881 34.994 173.655 40.9183 183.493 42.8019C185.595 43.2043 185.595 46.1366 183.493 46.5389Z" fill="#7EDF5E"/>
</svg>
